<mxfile host="app.diagrams.net" modified="2021-10-15T15:30:12.081Z" agent="5.0 (Windows NT 10.0; Win64; x64) AppleWebKit/537.36 (KHTML, like Gecko) Chrome/94.0.4606.81 Safari/537.36" etag="uCEjKmQ_p-Yy-Y00GjRP" version="15.5.2" type="github">
  <diagram id="h84aJa1zQH50LJgbbpJi" name="Page-1">
    <mxGraphModel dx="2249" dy="800" grid="1" gridSize="10" guides="1" tooltips="1" connect="1" arrows="1" fold="1" page="1" pageScale="1" pageWidth="827" pageHeight="1169" math="0" shadow="0">
      <root>
        <mxCell id="0" />
        <mxCell id="1" parent="0" />
        <mxCell id="T_Lt9FC1cP9iMAVXBgN5-1" value="DEPARTAMENTOS" style="rounded=0;whiteSpace=wrap;html=1;" parent="1" vertex="1">
          <mxGeometry x="325" y="240" width="120" height="60" as="geometry" />
        </mxCell>
        <mxCell id="T_Lt9FC1cP9iMAVXBgN5-2" value="PROYECTOS" style="rounded=0;whiteSpace=wrap;html=1;" parent="1" vertex="1">
          <mxGeometry x="610" y="240" width="120" height="60" as="geometry" />
        </mxCell>
        <mxCell id="T_Lt9FC1cP9iMAVXBgN5-3" value="EMPLEADOS" style="rounded=0;whiteSpace=wrap;html=1;" parent="1" vertex="1">
          <mxGeometry x="70" y="240" width="120" height="60" as="geometry" />
        </mxCell>
        <mxCell id="KLaK1ddRfHIB_oE3SK-F-9" style="edgeStyle=orthogonalEdgeStyle;rounded=0;orthogonalLoop=1;jettySize=auto;html=1;entryX=0;entryY=0.5;entryDx=0;entryDy=0;endArrow=none;endFill=0;" edge="1" parent="1" source="T_Lt9FC1cP9iMAVXBgN5-4" target="T_Lt9FC1cP9iMAVXBgN5-3">
          <mxGeometry relative="1" as="geometry" />
        </mxCell>
        <mxCell id="T_Lt9FC1cP9iMAVXBgN5-4" value="NIF" style="ellipse;whiteSpace=wrap;html=1;" parent="1" vertex="1">
          <mxGeometry x="-120" y="140" width="120" height="50" as="geometry" />
        </mxCell>
        <mxCell id="KLaK1ddRfHIB_oE3SK-F-10" style="edgeStyle=orthogonalEdgeStyle;rounded=0;orthogonalLoop=1;jettySize=auto;html=1;endArrow=none;endFill=0;" edge="1" parent="1" source="T_Lt9FC1cP9iMAVXBgN5-5" target="T_Lt9FC1cP9iMAVXBgN5-3">
          <mxGeometry relative="1" as="geometry" />
        </mxCell>
        <mxCell id="T_Lt9FC1cP9iMAVXBgN5-5" value="NOMBRE" style="ellipse;whiteSpace=wrap;html=1;" parent="1" vertex="1">
          <mxGeometry x="-120" y="210" width="120" height="50" as="geometry" />
        </mxCell>
        <mxCell id="KLaK1ddRfHIB_oE3SK-F-11" style="edgeStyle=orthogonalEdgeStyle;rounded=0;orthogonalLoop=1;jettySize=auto;html=1;endArrow=none;endFill=0;" edge="1" parent="1" source="T_Lt9FC1cP9iMAVXBgN5-6" target="T_Lt9FC1cP9iMAVXBgN5-3">
          <mxGeometry relative="1" as="geometry" />
        </mxCell>
        <mxCell id="T_Lt9FC1cP9iMAVXBgN5-6" value="COD. DEPARTAMENTO" style="ellipse;whiteSpace=wrap;html=1;" parent="1" vertex="1">
          <mxGeometry x="-120" y="280" width="120" height="50" as="geometry" />
        </mxCell>
        <mxCell id="KLaK1ddRfHIB_oE3SK-F-12" style="edgeStyle=orthogonalEdgeStyle;rounded=0;orthogonalLoop=1;jettySize=auto;html=1;entryX=0;entryY=0.5;entryDx=0;entryDy=0;endArrow=none;endFill=0;" edge="1" parent="1" source="T_Lt9FC1cP9iMAVXBgN5-7" target="T_Lt9FC1cP9iMAVXBgN5-3">
          <mxGeometry relative="1" as="geometry" />
        </mxCell>
        <mxCell id="T_Lt9FC1cP9iMAVXBgN5-7" value="SUELDO" style="ellipse;whiteSpace=wrap;html=1;" parent="1" vertex="1">
          <mxGeometry x="-120" y="340" width="120" height="50" as="geometry" />
        </mxCell>
        <mxCell id="KLaK1ddRfHIB_oE3SK-F-13" style="edgeStyle=orthogonalEdgeStyle;rounded=0;orthogonalLoop=1;jettySize=auto;html=1;entryX=0.5;entryY=1;entryDx=0;entryDy=0;endArrow=none;endFill=0;" edge="1" parent="1" source="T_Lt9FC1cP9iMAVXBgN5-19" target="T_Lt9FC1cP9iMAVXBgN5-1">
          <mxGeometry relative="1" as="geometry" />
        </mxCell>
        <mxCell id="T_Lt9FC1cP9iMAVXBgN5-19" value="COD. DEPARTAMENTO" style="ellipse;whiteSpace=wrap;html=1;" parent="1" vertex="1">
          <mxGeometry x="260" y="370" width="120" height="50" as="geometry" />
        </mxCell>
        <mxCell id="KLaK1ddRfHIB_oE3SK-F-14" style="edgeStyle=orthogonalEdgeStyle;rounded=0;orthogonalLoop=1;jettySize=auto;html=1;entryX=0.5;entryY=1;entryDx=0;entryDy=0;endArrow=none;endFill=0;" edge="1" parent="1" source="T_Lt9FC1cP9iMAVXBgN5-20" target="T_Lt9FC1cP9iMAVXBgN5-1">
          <mxGeometry relative="1" as="geometry" />
        </mxCell>
        <mxCell id="T_Lt9FC1cP9iMAVXBgN5-20" value="NOMBRE" style="ellipse;whiteSpace=wrap;html=1;" parent="1" vertex="1">
          <mxGeometry x="390" y="370" width="120" height="50" as="geometry" />
        </mxCell>
        <mxCell id="KLaK1ddRfHIB_oE3SK-F-15" style="edgeStyle=orthogonalEdgeStyle;rounded=0;orthogonalLoop=1;jettySize=auto;html=1;entryX=0.5;entryY=1;entryDx=0;entryDy=0;endArrow=none;endFill=0;" edge="1" parent="1" source="T_Lt9FC1cP9iMAVXBgN5-21" target="T_Lt9FC1cP9iMAVXBgN5-2">
          <mxGeometry relative="1" as="geometry" />
        </mxCell>
        <mxCell id="T_Lt9FC1cP9iMAVXBgN5-21" value="COD. PROYECTO" style="ellipse;whiteSpace=wrap;html=1;" parent="1" vertex="1">
          <mxGeometry x="545" y="370" width="120" height="50" as="geometry" />
        </mxCell>
        <mxCell id="KLaK1ddRfHIB_oE3SK-F-16" style="edgeStyle=orthogonalEdgeStyle;rounded=0;orthogonalLoop=1;jettySize=auto;html=1;endArrow=none;endFill=0;" edge="1" parent="1" source="T_Lt9FC1cP9iMAVXBgN5-22" target="T_Lt9FC1cP9iMAVXBgN5-2">
          <mxGeometry relative="1" as="geometry" />
        </mxCell>
        <mxCell id="T_Lt9FC1cP9iMAVXBgN5-22" value="COD. PROYECTO" style="ellipse;whiteSpace=wrap;html=1;" parent="1" vertex="1">
          <mxGeometry x="675" y="370" width="120" height="50" as="geometry" />
        </mxCell>
        <mxCell id="KLaK1ddRfHIB_oE3SK-F-5" value="Participan" style="rhombus;whiteSpace=wrap;html=1;" vertex="1" parent="1">
          <mxGeometry x="490" y="225" width="80" height="80" as="geometry" />
        </mxCell>
        <mxCell id="KLaK1ddRfHIB_oE3SK-F-7" value="Pertenecen" style="rhombus;whiteSpace=wrap;html=1;" vertex="1" parent="1">
          <mxGeometry x="217" y="230" width="80" height="80" as="geometry" />
        </mxCell>
      </root>
    </mxGraphModel>
  </diagram>
</mxfile>
